PathFileType	4	(X/Y/Z)	C:/Users/dbak576/Desktop/Duncan Bakke Modelling Files/Output/AB08/StaticAB08.trc	
DataRate	CameraRate	NumFrames	NumMarkers	Units	OrigDataRate	OrigDataStartFrame	OrigNumFrames	
200.00	200.00	5	42	mm	200.00	94	125	
Frame#	Time	LASI			RASI			LPSI			RPSI			LTH1			LTH2			LTH3			LTH4			LMFC			LLFC			LTB1			LTB2			LTB3			LTB4			LMMAL			LLMAL			LCAL			LToe			LMT1			LMT5			RTH1			RTH2			RTH3			RTH4			RMFC			RLFC			RTB1			RTB2			RTB3			RTB4			RMMAL			RLMAL			RCAL			RToe			RMT1			RMT5			C7			T10			LACR1			RACR1			CLAV			RBack			
		X1	Y1	Z1	X2	Y2	Z2	X3	Y3	Z3	X4	Y4	Z4	X5	Y5	Z5	X6	Y6	Z6	X7	Y7	Z7	X8	Y8	Z8	X9	Y9	Z9	X10	Y10	Z10	X11	Y11	Z11	X12	Y12	Z12	X13	Y13	Z13	X14	Y14	Z14	X15	Y15	Z15	X16	Y16	Z16	X17	Y17	Z17	X18	Y18	Z18	X19	Y19	Z19	X20	Y20	Z20	X21	Y21	Z21	X22	Y22	Z22	X23	Y23	Z23	X24	Y24	Z24	X25	Y25	Z25	X26	Y26	Z26	X27	Y27	Z27	X28	Y28	Z28	X29	Y29	Z29	X30	Y30	Z30	X31	Y31	Z31	X32	Y32	Z32	X33	Y33	Z33	X34	Y34	Z34	X35	Y35	Z35	X36	Y36	Z36	X37	Y37	Z37	X38	Y38	Z38	X39	Y39	Z39	X40	Y40	Z40	X41	Y41	Z41	X42	Y42	Z42	

94	0.465	352.73444	918.75732	973.02100	603.04651	916.71893	990.81342	416.70599	696.46344	1007.97772	542.80188	688.26740	1013.06659	334.88614	919.93201	681.18469	324.26031	897.54279	649.31665	370.73050	897.86243	601.65826	354.33640	909.64282	637.61786	442.69086	829.25378	508.71613	318.96213	800.87122	520.73755	289.05231	770.16479	428.49008	286.34998	760.13641	344.61185	300.90604	812.71240	341.23969	296.92822	805.44183	381.08691	383.29770	797.89355	121.28481	298.30374	774.39697	116.21713	338.79376	705.32477	52.37669	354.89899	1008.81879	46.15747	384.63281	920.37805	48.06532	262.90286	902.09088	40.32143	608.61829	918.39349	705.37262	598.18823	899.93500	642.57898	642.40222	861.65369	623.93640	649.73633	880.77966	678.65015	520.06805	829.59106	507.45831	646.10632	804.02240	531.26917	661.40826	815.60248	418.56680	652.45770	827.31018	381.46976	646.47919	831.95026	330.98288	678.38995	788.49860	335.18607	583.94403	799.75226	122.95158	671.32086	771.32031	113.56356	625.31848	700.59424	57.27415	617.58624	1004.00537	42.18306	586.61719	911.25787	42.16969	708.65082	891.59821	43.81002	447.83987	728.00507	1498.51550	453.68845	696.36591	1242.48096	286.50320	797.19946	1478.37805	608.08557	779.23511	1490.65173	458.53638	890.59351	1455.23779	570.00671	681.44257	1396.62585 
95	0.470	352.79001	918.75214	972.98914	603.07391	916.70868	990.81201	416.69974	696.48773	1008.04565	542.86200	688.25476	1013.07098	334.86957	919.86017	681.15625	324.21918	897.56445	649.29645	370.67542	897.87463	601.61658	354.30695	909.60077	637.57257	442.63812	829.30396	508.67310	318.96478	800.87512	520.70160	289.02722	770.15527	428.47977	286.35120	760.14893	344.63889	300.93597	812.69360	341.18079	296.92578	805.42914	381.11667	383.30038	797.88824	121.28321	298.27808	774.38110	116.22914	338.80847	705.31384	52.34705	354.93387	1008.85187	46.14577	384.61176	920.37891	48.06354	262.91739	902.08850	40.28900	608.58484	918.38312	705.32867	598.19757	899.90820	642.61230	642.36761	861.66046	623.91663	649.73468	880.75305	678.64844	520.07495	829.46167	507.46677	646.09412	804.06049	531.24835	661.40430	815.64819	418.56378	652.52423	827.36835	381.49686	646.46960	831.94879	330.97833	678.38110	788.46448	335.17206	583.94061	799.72522	122.92807	671.31128	771.32294	113.53409	625.33203	700.59784	57.25464	617.63641	1004.14459	42.33183	586.57794	911.25885	42.17744	708.61395	891.60699	43.76500	447.80960	728.06769	1498.52051	453.71051	696.31042	1242.52161	286.44305	797.25769	1478.35266	608.06378	779.25897	1490.64807	458.49243	890.63214	1455.23804	569.95380	681.52167	1396.63611 
96	0.475	352.82941	918.71844	972.97943	603.06158	916.71326	990.78192	416.69794	696.43536	1008.02264	542.85724	688.23706	1013.07227	334.90161	919.89447	681.16388	324.23599	897.49463	649.29468	370.65057	897.83545	601.61542	354.19235	909.57971	637.56104	442.60358	829.34174	508.69284	318.89554	800.83704	520.70642	289.06290	770.06958	428.44202	286.34933	760.12390	344.62024	300.88382	812.66553	341.20721	296.83902	805.37195	381.05490	383.31168	797.96332	121.26894	298.26904	774.41864	116.16138	338.79443	705.32007	52.35088	354.88141	1008.84961	46.12992	384.61569	920.38086	48.05190	262.93915	902.12036	40.27166	608.59631	918.37762	705.35754	598.18280	899.98102	642.61084	642.37225	861.65430	623.90381	649.70825	880.74249	678.62775	520.04156	829.46759	507.47635	646.10022	804.05060	531.23810	661.38898	815.64063	418.55579	652.44366	827.29828	381.45224	646.45734	831.96368	330.95764	678.35425	788.49835	335.16238	583.92090	799.72388	122.92803	671.31262	771.35046	113.53515	625.30273	700.61908	57.21127	617.60114	1004.15106	42.31510	586.47571	911.20837	42.14251	708.61450	891.61023	43.76117	447.77045	728.14679	1498.52893	453.68527	696.36792	1242.53845	286.43628	797.34711	1478.36084	608.04443	779.37439	1490.65088	458.46616	890.69781	1455.20959	569.95093	681.56433	1396.67041 
97	0.480	352.81830	918.68030	972.96283	603.09180	916.70410	990.78754	416.75510	696.39447	1008.02509	542.85510	688.22986	1013.06879	334.91879	919.85773	681.16711	324.22293	897.50836	649.31415	370.59512	897.82281	601.59216	354.20621	909.57990	637.56378	442.64941	829.34912	508.66089	318.91354	800.81976	520.69287	288.99661	770.16382	428.44998	286.37415	760.18134	344.63049	300.89484	812.66241	341.14435	296.83481	805.38092	381.07083	383.29495	797.94476	121.25228	298.27057	774.37042	116.17565	338.75037	705.31458	52.35825	354.87582	1008.82568	46.14231	384.61023	920.37781	48.06480	262.85583	902.08521	40.26934	608.59454	918.37915	705.34399	598.20343	899.89001	642.56543	642.38165	861.66156	623.90094	649.73090	880.77216	678.60010	520.03918	829.59094	507.47345	646.07843	804.07428	531.23688	661.36230	815.62415	418.55573	652.45898	827.31659	381.44962	646.46173	831.97675	331.00311	678.35754	788.49066	335.17194	583.90277	799.71649	122.93856	671.32306	771.35498	113.52045	625.31573	700.57489	57.23100	617.52478	1003.94702	42.13937	586.45117	911.18530	42.11832	708.59619	891.59930	43.78011	447.76382	728.22833	1498.55298	453.68423	696.37396	1242.54004	286.39148	797.42224	1478.34583	607.98730	779.42780	1490.65015	458.39322	890.75555	1455.16699	569.92554	681.61603	1396.70068 
98	0.485	352.79901	918.67188	972.93024	603.12268	916.68121	990.78638	416.76511	696.43768	1008.00165	542.95044	688.20233	1013.06897	334.93286	919.81342	681.15723	324.24692	897.52234	649.36389	370.61862	897.82251	601.54193	354.22598	909.55896	637.53033	442.68088	829.43750	508.70016	318.88849	800.83716	520.67792	288.99988	770.10632	428.43826	286.36584	760.18341	344.64551	300.91733	812.64978	341.13824	296.84229	805.36664	381.04306	383.30127	797.93964	121.26388	298.25137	774.42004	116.17168	338.81046	705.36383	52.29992	354.89050	1008.82849	46.15055	384.62439	920.40002	48.06936	262.88138	902.05035	40.25005	608.62598	918.35638	705.35730	598.19934	899.88293	642.58337	642.37714	861.68372	623.92462	649.72601	880.76477	678.62402	520.03815	829.46503	507.47308	646.09430	804.03662	531.21967	661.37152	815.63861	418.55389	652.46008	827.33807	381.46619	646.44342	831.97675	330.96750	678.36749	788.50189	335.15451	583.91907	799.69885	122.90696	671.29449	771.35834	113.51646	625.32104	700.56549	57.19650	617.54517	1004.10150	42.30954	586.49915	911.21960	42.12770	708.58636	891.56403	43.77226	447.74094	728.29468	1498.58118	453.64224	696.39648	1242.56763	286.38962	797.54834	1478.33728	607.97510	779.53760	1490.65186	458.39719	890.79938	1455.12488	569.95386	681.69226	1396.71851 
